<!--
AI prompt (source-of-truth for regeneration):
Generic enterprise product UI preview (NDA-safe), clean minimal SaaS dashboard, olive gradient background, glassmorphism cards and abstract charts, no text, no people, realistic UI, 16:9.
-->
<svg xmlns="http://www.w3.org/2000/svg" width="1600" height="900" viewBox="0 0 1600 900" role="img" aria-label="Generic enterprise UI preview">
  <defs>
    <linearGradient id="bg" x1="0" y1="0" x2="1" y2="1">
      <stop offset="0" stop-color="#081f18"/>
      <stop offset="0.6" stop-color="#14382b"/>
      <stop offset="1" stop-color="#051510"/>
    </linearGradient>
    <linearGradient id="glow" x1="0" y1="0" x2="1" y2="1">
      <stop offset="0" stop-color="#a6f4a8" stop-opacity="0.20"/>
      <stop offset="1" stop-color="#8fdc93" stop-opacity="0.03"/>
    </linearGradient>
    <filter id="blur" x="-50%" y="-50%" width="200%" height="200%">
      <feGaussianBlur stdDeviation="70"/>
    </filter>
    <filter id="glass" x="-20%" y="-20%" width="140%" height="140%">
      <feGaussianBlur in="BackgroundImage" stdDeviation="14" result="bgblur"/>
      <feComposite in="bgblur" in2="SourceGraphic" operator="in" result="masked"/>
      <feMerge>
        <feMergeNode in="masked"/>
        <feMergeNode in="SourceGraphic"/>
      </feMerge>
    </filter>
  </defs>

  <rect width="1600" height="900" fill="url(#bg)"/>
  <circle cx="420" cy="240" r="340" fill="url(#glow)" filter="url(#blur)"/>
  <circle cx="1220" cy="660" r="360" fill="url(#glow)" filter="url(#blur)"/>

  <g filter="url(#glass)">
    <rect x="200" y="170" width="1200" height="560" rx="34" fill="#ffffff" fill-opacity="0.08" stroke="#ffffff" stroke-opacity="0.14"/>
    <rect x="240" y="220" width="520" height="200" rx="26" fill="#ffffff" fill-opacity="0.10"/>
    <rect x="280" y="260" width="220" height="14" rx="7" fill="#ffffff" fill-opacity="0.18"/>
    <rect x="280" y="292" width="380" height="10" rx="5" fill="#ffffff" fill-opacity="0.12"/>
    <rect x="280" y="318" width="340" height="10" rx="5" fill="#ffffff" fill-opacity="0.10"/>
    <rect x="240" y="450" width="520" height="240" rx="26" fill="#ffffff" fill-opacity="0.10"/>
    <path d="M280 640 C340 590, 400 640, 460 600 C520 560, 580 640, 640 590 C700 540, 720 560, 760 520"
          stroke="#a6f4a8" stroke-width="6" stroke-linecap="round" stroke-opacity="0.78" fill="none"/>

    <rect x="800" y="220" width="560" height="470" rx="30" fill="#ffffff" fill-opacity="0.10"/>
    <rect x="840" y="260" width="260" height="14" rx="7" fill="#ffffff" fill-opacity="0.18"/>
    <g transform="translate(840 310)">
      <rect x="0" y="76" width="16" height="54" rx="6" fill="#a6f4a8" fill-opacity="0.42"/>
      <rect x="26" y="50" width="16" height="80" rx="6" fill="#a6f4a8" fill-opacity="0.64"/>
      <rect x="52" y="90" width="16" height="40" rx="6" fill="#a6f4a8" fill-opacity="0.30"/>
      <rect x="78" y="34" width="16" height="96" rx="6" fill="#a6f4a8" fill-opacity="0.74"/>
      <rect x="104" y="62" width="16" height="68" rx="6" fill="#a6f4a8" fill-opacity="0.50"/>
    </g>
    <rect x="840" y="480" width="500" height="14" rx="7" fill="#ffffff" fill-opacity="0.12"/>
    <rect x="840" y="512" width="460" height="14" rx="7" fill="#ffffff" fill-opacity="0.10"/>
    <rect x="840" y="574" width="500" height="14" rx="7" fill="#ffffff" fill-opacity="0.10"/>
    <rect x="840" y="574" width="320" height="14" rx="7" fill="#a6f4a8" fill-opacity="0.34"/>
  </g>
</svg>
